<svg width="20" height="20" viewBox="0 0 20 20" fill="none" xmlns="http://www.w3.org/2000/svg">
<path d="M16.6666 14.5834C16.9877 14.5835 17.2963 14.7072 17.5286 14.9287C17.761 15.1502 17.8992 15.4526 17.9146 15.7733C17.93 16.0939 17.8215 16.4082 17.6115 16.651C17.4015 16.8938 17.1062 17.0465 16.7866 17.0775L16.6666 17.0834H3.33331C3.0123 17.0832 2.70365 16.9595 2.47132 16.738C2.239 16.5165 2.1008 16.2141 2.08538 15.8934C2.06995 15.5728 2.17847 15.2585 2.38846 15.0157C2.59845 14.7729 2.8938 14.6202 3.21331 14.5892L3.33331 14.5834H16.6666ZM16.6666 8.75002C16.9982 8.75002 17.3161 8.88172 17.5505 9.11614C17.7849 9.35056 17.9166 9.6685 17.9166 10C17.9166 10.3315 17.7849 10.6495 17.5505 10.8839C17.3161 11.1183 16.9982 11.25 16.6666 11.25H3.33331C3.00179 11.25 2.68385 11.1183 2.44943 10.8839C2.21501 10.6495 2.08331 10.3315 2.08331 10C2.08331 9.6685 2.21501 9.35056 2.44943 9.11614C2.68385 8.88172 3.00179 8.75002 3.33331 8.75002H16.6666ZM16.6666 2.91669C16.9982 2.91669 17.3161 3.04838 17.5505 3.2828C17.7849 3.51722 17.9166 3.83517 17.9166 4.16669C17.9166 4.49821 17.7849 4.81615 17.5505 5.05057C17.3161 5.28499 16.9982 5.41669 16.6666 5.41669H3.33331C3.00179 5.41669 2.68385 5.28499 2.44943 5.05057C2.21501 4.81615 2.08331 4.49821 2.08331 4.16669C2.08331 3.83517 2.21501 3.51722 2.44943 3.2828C2.68385 3.04838 3.00179 2.91669 3.33331 2.91669H16.6666Z" fill="white"/>
</svg>
