<svg width="50" height="39" viewBox="0 0 50 39" fill="none" xmlns="http://www.w3.org/2000/svg">
<path d="M20.4949 31.0073L20.7825 38.1746H17.9875L15.9147 30.8024L20.4949 31.0073ZM36.532 31.0512L36.4958 31.6339L38.4291 38.1746H41.0324L40.4295 30.656C39.138 30.879 37.8375 31.0109 36.5342 31.0512H36.532ZM40.0247 9.22062C40.4903 9.21319 40.9549 9.16338 41.4148 9.07161C46.8684 8.05778 45.3015 2.47774 45.3015 2.47774C45.3015 2.47774 41.0025 3.67517 39.6743 5.59373C39.6764 5.59373 36.679 9.22062 40.0268 9.22062H40.0247ZM48.7431 5.85051C48.7431 5.85051 48.0177 5.85051 47.0474 5.95961C46.8193 7.12352 46.3283 8.18108 45.6328 9.00641C45.9308 9.60808 46.1955 10.2344 46.4253 10.8811C49.1148 9.62642 48.7463 5.85051 48.7463 5.85051H48.7431ZM50 19.1793V24.6994C50 24.6994 44.3386 28.9437 35.6735 28.9437C35.4402 28.9437 35.2006 28.9237 34.963 28.9171L34.3793 38.1746H32.3555L29.7512 29.279L12.4326 28.498L11.4314 38.1746H9.0209C9.0209 38.1746 3.89212 24.6595 6.55184 13.9518C5.96067 13.4409 5.33968 12.8648 4.76982 12.2621C4.22339 12.6147 3.67696 12.8089 3.17207 12.7743C1.49336 12.6612 0.150189 11.0806 0 10.8997L1.18873 9.37496C1.46567 9.70758 2.38278 10.5897 3.26367 10.6482C3.32428 10.6514 3.38498 10.6465 3.44475 10.6336C3.2624 10.3646 3.09884 10.0766 2.95584 9.77277C2.35402 8.46491 2.21022 7.06923 2.54681 5.94231C2.69253 5.47431 2.92087 5.05338 3.21483 4.71085C3.50879 4.36831 3.86081 4.11299 4.24469 3.96389C5.44726 3.45697 7.10466 3.51818 7.94615 4.61582C8.2593 5.02428 8.71733 5.92502 8.2657 7.36992C7.8833 8.60594 7.10999 9.94307 6.20353 10.9782C6.50924 11.2842 6.83624 11.5915 7.17177 11.8922C8.17942 9.11817 9.81764 6.62618 12.34 4.73956C16.3256 1.73787 20.894 0.158985 25.548 0.174676C30.0247 0.190199 34.4312 1.56553 38.3876 4.18209C38.0875 4.56601 37.8109 4.97739 37.5599 5.41278C36.7504 6.83241 36.5299 8.13894 36.9048 9.29646C37.2084 10.2278 37.9945 11.3481 40.0194 11.3481C40.5692 11.3409 41.1178 11.2831 41.6608 11.1751C42.5476 11.0252 43.4102 10.7029 44.2172 10.2198C45.8948 13.6418 46.0514 18.0258 47.1997 18.3358C48.562 18.6976 50 19.1793 50 19.1793ZM6.68073 6.60356C6.72653 6.45455 6.79257 6.18978 6.71481 6.08867C6.57421 5.90506 6.20247 5.78798 5.76468 5.78798C5.43347 5.78566 5.10409 5.84944 4.78899 5.97691C4.45559 6.11661 4.24363 6.35077 4.1403 6.69271C3.98479 7.21825 4.09131 7.97263 4.43323 8.71371C4.57865 9.01318 4.74973 9.292 4.94344 9.54526C5.65284 8.77092 6.3484 7.67726 6.68073 6.60356ZM41.9527 17.4536C41.9527 17.2155 41.8961 16.9827 41.7902 16.7847C41.6843 16.5867 41.5337 16.4323 41.3576 16.3412C41.1814 16.2501 40.9876 16.2262 40.8006 16.2727C40.6136 16.3192 40.4419 16.4338 40.3071 16.6022C40.1722 16.7706 40.0804 16.9852 40.0432 17.2187C40.006 17.4523 40.0251 17.6944 40.0981 17.9144C40.1711 18.1344 40.2946 18.3225 40.4531 18.4548C40.6117 18.5871 40.798 18.6577 40.9887 18.6577C41.2444 18.6577 41.4895 18.5309 41.6703 18.3051C41.8511 18.0792 41.9527 17.773 41.9527 17.4536Z" fill="white"/>
</svg>
