<svg width="45" height="40" viewBox="0 0 45 40" fill="none" xmlns="http://www.w3.org/2000/svg">
<path d="M30.1782 13.2129L1 39M14.5194 27.0519L15.022 26.6934C15.5097 26.3195 15.9514 25.9006 16.3394 25.4433C19.3549 21.89 18.5401 16.8488 14.5194 14.1837L14.0167 14.5422C13.5291 14.916 13.0874 15.3349 12.6994 15.7922C9.68377 19.3457 10.4986 24.3869 14.5194 27.0519ZM14.5194 27.0519L14.925 27.4961C15.348 27.927 15.8221 28.3174 16.3395 28.6605C20.3602 31.3254 26.0642 30.6052 29.0797 27.0519L28.6741 26.6076C28.2513 26.1766 27.777 25.7862 27.2596 25.4433C23.2389 22.7782 17.535 23.4984 14.5194 27.0519ZM21.7996 20.6177L22.3021 20.2592C22.7898 19.8855 23.2315 19.4666 23.6195 19.0093C26.6353 15.4558 25.8202 10.4147 21.7996 7.7496L21.297 8.1081C20.8094 8.4819 20.3677 8.90083 19.9797 9.35808C16.964 12.9115 17.7787 17.9526 21.7996 20.6177ZM21.7996 20.6177L22.2053 21.0621C22.6283 21.493 23.1023 21.8834 23.6197 22.2263C27.6404 24.8914 33.3443 24.1713 36.3599 20.6177L35.9542 20.1736C35.5314 19.7426 35.0572 19.3522 34.54 19.0093C30.5191 16.3443 24.8151 17.0644 21.7996 20.6177ZM29.0797 14.1837L29.5825 13.8252C30.0699 13.4514 30.5119 13.0325 30.8999 12.5752C33.9154 9.02176 33.1006 3.98063 29.0797 1.31552L28.5772 1.67402C28.0895 2.04782 27.6479 2.46675 27.2598 2.924C24.2443 6.47745 25.0591 11.5186 29.0797 14.1837ZM29.0797 14.1837L29.4854 14.6279C29.9085 15.0589 30.3824 15.4493 30.8999 15.7922C34.9205 18.4574 40.6247 17.737 43.64 14.1837L43.2346 13.7395C42.8116 13.3085 42.3376 12.9181 41.8201 12.5751C37.7992 9.91011 32.0953 10.6303 29.0797 14.1837ZM7.06683 33.6383L7.56948 33.2797C8.0571 32.9059 8.49881 32.487 8.88684 32.0297C11.9025 28.4763 11.0876 23.4351 7.06683 20.7701L6.56418 21.1286C6.07656 21.5022 5.63484 21.9214 5.24681 22.3785C2.23121 25.932 3.04605 30.9732 7.06683 33.6383ZM7.06683 33.6383L7.47249 34.0824C7.89545 34.5134 8.36953 34.9037 8.88694 35.2469C12.9077 37.9117 18.6116 37.1916 21.6272 33.6383L21.2215 33.1939C20.7987 32.7629 20.3245 32.3726 19.807 32.0297C15.7864 29.3646 10.0824 30.0847 7.06683 33.6383ZM36.1857 10.18C35.5453 10.2609 34.8979 10.281 34.254 10.2406L33.6116 10.1799C32.9009 5.78279 36.3581 1.70899 41.3335 1.08083C42.187 0.973056 43.0538 0.973056 43.9073 1.08083C44.6183 5.47806 41.1611 9.55185 36.1857 10.18Z" stroke="white" stroke-width="2"/>
</svg>
