<svg width="77" height="55" viewBox="0 0 77 55" fill="none" xmlns="http://www.w3.org/2000/svg">
<g filter="url(#filter0_d_541_371)">
<path d="M38.865 46.3106L38.865 46.3103L36.658 36.3095H40.5635L42.7891 46.2873C42.7935 46.3246 42.7825 46.3672 42.7405 46.4111C42.6938 46.46 42.6153 46.5 42.5167 46.5H39.1406C38.9842 46.5 38.884 46.3967 38.865 46.3106ZM51.0743 36.3095H54.9797L52.7727 46.3103L52.7727 46.3103L52.7717 46.3153C52.7638 46.3528 52.7397 46.3971 52.6902 46.4349C52.6403 46.4728 52.5711 46.4985 52.4934 46.5H49.121C49.0224 46.5 48.9439 46.46 48.8972 46.4111C48.8552 46.3672 48.8442 46.3246 48.8486 46.2873L51.0743 36.3095Z" fill="#FF5E59" stroke="black"/>
<path d="M53.2861 2.7381L53.2863 2.7381C56.0193 2.73488 58.7204 3.26129 61.2088 4.28094C63.6972 5.30057 65.9139 6.78916 67.7124 8.64462L68.5714 9.53083V8.29662V5.30429C68.5714 5.10098 68.8396 4.84408 69.1821 4.96853L69.1856 4.96977C71.16 5.67054 72.5 7.38126 72.5 9.35524V20.1429C72.5 24.5439 70.6867 28.5627 67.7122 31.6346L67.5714 31.78V31.9824V46.3062C67.5714 46.3398 67.5568 46.3835 67.5104 46.4256C67.4635 46.4683 67.3922 46.5 67.3075 46.5H63.9068C63.8221 46.5 63.7508 46.4683 63.7039 46.4256C63.6574 46.3835 63.6429 46.3398 63.6429 46.3062V42.5238C63.6429 41.9002 63.4192 41.3335 62.9691 40.8429L62.9299 40.8001L62.8819 40.7675L57.6822 37.2313L57.5938 37.1712L57.4886 37.1525L45.8818 35.089L45.7967 35.0738L45.7115 35.0881L31.0243 37.5545L30.6071 37.6246V38.0476V46.3062C30.6071 46.3398 30.5926 46.3835 30.5461 46.4256C30.4992 46.4683 30.4279 46.5 30.3432 46.5H26.9425C26.8578 46.5 26.7865 46.4683 26.7396 46.4256C26.6931 46.3835 26.6786 46.3398 26.6786 46.3062V41.1586C26.6786 40.4521 26.3681 39.7824 25.8494 39.3113L12.8656 27.5193C12.0493 26.7541 10.9386 26.3571 9.81571 26.3571H6.31642C6.30732 26.3571 6.29826 26.3571 6.28923 26.357L6.29383 13.9288C6.30184 13.9287 6.30986 13.9286 6.31788 13.9286H9.69249C10.7129 13.9286 11.711 13.4014 12.1794 12.4994C13.304 10.4364 14.8609 8.60828 16.7332 7.10407L17.1087 6.80235L16.8212 6.41584L13.1247 1.44727L13.1248 1.44723L13.1202 1.44131C12.9696 1.24498 12.9727 1.0296 13.0787 0.847354C13.1885 0.658613 13.4174 0.5 13.7339 0.5H17.9472C18.8391 0.502506 19.7166 0.693206 20.51 1.0553C21.3035 1.41745 21.9891 1.94005 22.5152 2.57846L22.6653 2.76065L22.9014 2.76048L53.2861 2.7381Z" fill="#FF8687" stroke="black"/>
<path d="M8.42857 16.7857V23.5C8.42857 24.8634 7.36365 26.0345 5.83796 26.3034C5.4574 26.2099 5.12583 26.0109 4.88792 25.7422C4.63367 25.4551 4.50081 25.1059 4.5 24.7528V15.5324C4.5 14.8245 5.04414 14.1718 5.83646 13.982C7.36295 14.2504 8.42857 15.4218 8.42857 16.7857ZM31.6071 37.5476V35.4514C31.6071 34.7422 32.2733 34.0714 33.1771 34.0714H52.9161C54.9932 34.0714 56.6496 35.4818 56.8749 37.2358C55.7105 37.4435 54.5084 37.5476 53.2857 37.5476H31.6071Z" fill="#FBB8AB" stroke="black"/>
<path d="M17.5534 19.6428C17.0932 19.6428 16.8213 19.3301 16.8213 19.0238V16.7857C16.8213 16.4794 17.0932 16.1667 17.5534 16.1667C18.0137 16.1667 18.2856 16.4794 18.2856 16.7857V19.0238C18.2856 19.3301 18.0137 19.6428 17.5534 19.6428Z" fill="#1C1C1C" stroke="black"/>
</g>
<defs>
<filter id="filter0_d_541_371" x="0" y="0" width="77" height="55" filterUnits="userSpaceOnUse" color-interpolation-filters="sRGB">
<feFlood flood-opacity="0" result="BackgroundImageFix"/>
<feColorMatrix in="SourceAlpha" type="matrix" values="0 0 0 0 0 0 0 0 0 0 0 0 0 0 0 0 0 0 127 0" result="hardAlpha"/>
<feOffset dy="4"/>
<feGaussianBlur stdDeviation="2"/>
<feComposite in2="hardAlpha" operator="out"/>
<feColorMatrix type="matrix" values="0 0 0 0 0 0 0 0 0 0 0 0 0 0 0 0 0 0 0.25 0"/>
<feBlend mode="normal" in2="BackgroundImageFix" result="effect1_dropShadow_541_371"/>
<feBlend mode="normal" in="SourceGraphic" in2="effect1_dropShadow_541_371" result="shape"/>
</filter>
</defs>
</svg>
