<svg width="25" height="25" viewBox="0 0 25 25" fill="none" xmlns="http://www.w3.org/2000/svg">
<path fill-rule="evenodd" clip-rule="evenodd" d="M12.5 2.08331C6.74686 2.08331 2.08331 6.74686 2.08331 12.5C2.08331 18.2531 6.74686 22.9166 12.5 22.9166C18.2531 22.9166 22.9166 18.2531 22.9166 12.5C22.9166 6.74686 18.2531 2.08331 12.5 2.08331ZM8.85415 9.89581C8.85415 9.41704 8.94845 8.94295 9.13167 8.50061C9.31489 8.05828 9.58344 7.65637 9.92199 7.31782C10.2605 6.97927 10.6624 6.71072 11.1048 6.5275C11.5471 6.34428 12.0212 6.24998 12.5 6.24998C12.9788 6.24998 13.4528 6.34428 13.8952 6.5275C14.3375 6.71072 14.7394 6.97927 15.078 7.31782C15.4165 7.65637 15.6851 8.05828 15.8683 8.50061C16.0515 8.94295 16.1458 9.41704 16.1458 9.89581C16.1458 10.8627 15.7617 11.7901 15.078 12.4738C14.3942 13.1575 13.4669 13.5416 12.5 13.5416C11.533 13.5416 10.6057 13.1575 9.92199 12.4738C9.23826 11.7901 8.85415 10.8627 8.85415 9.89581ZM19.0187 17.6916C18.2387 18.6722 17.2474 19.464 16.1187 20.008C14.9899 20.552 13.753 20.8341 12.5 20.8333C11.247 20.8341 10.01 20.552 8.8813 20.008C7.75258 19.464 6.76124 18.6722 5.98123 17.6916C7.66977 16.4802 9.97394 15.625 12.5 15.625C15.026 15.625 17.3302 16.4802 19.0187 17.6916Z" fill="black"/>
</svg>
